<svg xmlns:xlink="http://www.w3.org/1999/xlink" height="10px" version="1.1" viewBox="0 0 8 10"
    width="8px" xmlns="http://www.w3.org/2000/svg">
    <!-- Generator: Sketch 54.1 (76490) - https://sketchapp.com -->    <title>钱 (1)@3x</title>n
    <desc>
        Created with Sketch.
    </desc>
    <g >
        <g fill="#000000" fill-rule="nonzero" id="-b1-4-1--嗨拼团-拼团商城-课程商品详情-已开团（已达到限购次数）购买过"
            transform="translate(-74.000000, -115.000000)">
            <g id="编组-8" transform="translate(0.000000, 64.000000)">
                <g id="钱-(1)" transform="translate(74.000000, 51.000000)"><path
                    d="M3.96889115,4.43556066 L1.8445675,0.5 L0.2,0.5 L2.69963219,5.07230621 L0.96713654,5.07230621 L0.96713654,5.88153503 L3.15230608,5.88153503 L3.15230608,7.01574306 L0.96713654,7.01574306 L0.96713654,7.7999651 L3.15230608,7.7999651 L3.15230608,9.78386594 L4.66342679,9.78386594 L4.66342679,7.7999651 L6.86817101,7.7999651 L6.86817101,7.01574306 L4.66342679,7.01574306 L4.66342679,5.88153503 L6.86817101,5.88153503 L6.86817101,5.07230621 L5.11171976,5.07230621 L7.7377823,0.5 L5.96464976,0.5 C4.68399129,2.97661662 4.01873842,4.28847017 3.96889115,4.43556066 Z"
                    id="路径"></path>n
                </g>

            </g>

        </g>

    </g>

</svg>